<svg width="38" height="37" viewBox="0 0 38 37" fill="none" xmlns="http://www.w3.org/2000/svg">
<path d="M32.6049 17.5317C32.6101 19.5219 32.1452 21.4851 31.2479 23.2615C30.184 25.3902 28.5485 27.1806 26.5245 28.4323C24.5006 29.6839 22.1681 30.3474 19.7884 30.3483C17.7982 30.3535 15.835 29.8885 14.0586 28.9913L5.46393 31.8561L8.32881 23.2615C7.43155 21.4851 6.96657 19.5219 6.97176 17.5317C6.97268 15.152 7.63613 12.8195 8.8878 10.7955C10.1395 8.77158 11.9299 7.13606 14.0586 6.07218C15.835 5.17492 17.7982 4.70994 19.7884 4.71513H20.5423C23.6851 4.88852 26.6536 6.21507 28.8793 8.44078C31.105 10.6665 32.4316 13.635 32.6049 16.7778V17.5317Z" stroke="white" stroke-width="3.01567" stroke-linecap="round" stroke-linejoin="round"/>
</svg>
