<svg width="57" height="56" viewBox="0 0 57 56" fill="none" xmlns="http://www.w3.org/2000/svg">
<path fill-rule="evenodd" clip-rule="evenodd" d="M29.9601 11.6289C30.3758 10.7535 30.6084 9.77429 30.6084 8.74074C30.6084 5.01793 27.5905 2 23.8677 2C20.1449 2 17.127 5.01793 17.127 8.74074C17.127 9.77429 17.3596 10.7535 17.7753 11.6289H4.68164C3.57707 11.6289 2.68164 12.5243 2.68164 13.6289V51.9993C2.68164 53.1038 3.57707 53.9993 4.68164 53.9993H43.052C44.1566 53.9993 45.052 53.1038 45.052 51.9993V38.9075C45.9273 39.3231 46.9065 39.5557 47.94 39.5557C51.6628 39.5557 54.6807 36.5378 54.6807 32.815C54.6807 29.0922 51.6628 26.0742 47.94 26.0742C46.9065 26.0742 45.9273 26.3068 45.052 26.7225V13.6289C45.052 12.5243 44.1566 11.6289 43.052 11.6289H29.9601Z" fill="#4474F4"/>
<path d="M29.9601 11.6289L28.1535 10.7709L26.7962 13.6289H29.9601V11.6289ZM17.7753 11.6289V13.6289H20.9392L19.5819 10.7709L17.7753 11.6289ZM45.052 38.9075L45.9099 37.1008L43.052 35.7437V38.9075H45.052ZM45.052 26.7225H43.052V29.8862L45.9099 28.5291L45.052 26.7225ZM28.6084 8.74074C28.6084 9.47128 28.4446 10.158 28.1535 10.7709L31.7667 12.4869C32.3071 11.349 32.6084 10.0773 32.6084 8.74074H28.6084ZM23.8677 4C26.4859 4 28.6084 6.1225 28.6084 8.74074H32.6084C32.6084 3.91336 28.6951 0 23.8677 0V4ZM19.127 8.74074C19.127 6.1225 21.2495 4 23.8677 4V0C19.0403 0 15.127 3.91336 15.127 8.74074H19.127ZM19.5819 10.7709C19.2908 10.158 19.127 9.47128 19.127 8.74074H15.127C15.127 10.0773 15.4283 11.349 15.9687 12.4869L19.5819 10.7709ZM17.7753 9.62891H4.68164V13.6289H17.7753V9.62891ZM4.68164 9.62891C2.4725 9.62891 0.681641 11.4198 0.681641 13.6289H4.68164V13.6289V9.62891ZM0.681641 13.6289V51.9993H4.68164V13.6289H0.681641ZM0.681641 51.9993C0.681641 54.2084 2.4725 55.9993 4.68164 55.9993V51.9993H4.68164H0.681641ZM4.68164 55.9993H43.052V51.9993H4.68164V55.9993ZM43.052 55.9993C45.2611 55.9993 47.052 54.2084 47.052 51.9993H43.052V55.9993ZM47.052 51.9993V38.9075H43.052V51.9993H47.052ZM44.1941 40.7141C45.3319 41.2544 46.6035 41.5557 47.94 41.5557V37.5557C47.2095 37.5557 46.5228 37.3919 45.9099 37.1008L44.1941 40.7141ZM47.94 41.5557C52.7673 41.5557 56.6807 37.6423 56.6807 32.815H52.6807C52.6807 35.4332 50.5582 37.5557 47.94 37.5557V41.5557ZM56.6807 32.815C56.6807 27.9876 52.7673 24.0742 47.94 24.0742V28.0742C50.5582 28.0742 52.6807 30.1967 52.6807 32.815H56.6807ZM47.94 24.0742C46.6035 24.0742 45.3319 24.3755 44.1941 24.9158L45.9099 28.5291C46.5228 28.2381 47.2095 28.0742 47.94 28.0742V24.0742ZM47.052 26.7225V13.6289H43.052V26.7225H47.052ZM47.052 13.6289C47.052 11.4198 45.2611 9.62891 43.052 9.62891V13.6289H47.052ZM43.052 9.62891H29.9601V13.6289H43.052V9.62891Z" fill="#4474F4"/>
</svg>
