<svg width="51" height="55" viewBox="0 0 51 55" fill="none" xmlns="http://www.w3.org/2000/svg">
<path d="M7.63672 53H43.041" stroke="#4474F4" stroke-width="4" stroke-linecap="round"/>
<mask id="path-2-inside-1_1213_45" fill="white">
<path fill-rule="evenodd" clip-rule="evenodd" d="M3 1C1.89543 1 1 1.89543 1 3V42.1489C1 43.2535 1.89543 44.1489 3 44.1489H47.6809C48.7854 44.1489 49.6809 43.2535 49.6809 42.1489V3C49.6809 1.89543 48.7854 1 47.6809 1H3ZM19.8086 17.7754V28.3183C19.8086 29.9002 21.5582 30.856 22.8893 30.0013L31.4554 24.5006C32.7096 23.6952 32.6738 21.8502 31.3893 21.0941L22.8231 16.0518C21.4899 15.267 19.8086 16.2283 19.8086 17.7754Z"/>
</mask>
<path fill-rule="evenodd" clip-rule="evenodd" d="M3 1C1.89543 1 1 1.89543 1 3V42.1489C1 43.2535 1.89543 44.1489 3 44.1489H47.6809C48.7854 44.1489 49.6809 43.2535 49.6809 42.1489V3C49.6809 1.89543 48.7854 1 47.6809 1H3ZM19.8086 17.7754V28.3183C19.8086 29.9002 21.5582 30.856 22.8893 30.0013L31.4554 24.5006C32.7096 23.6952 32.6738 21.8502 31.3893 21.0941L22.8231 16.0518C21.4899 15.267 19.8086 16.2283 19.8086 17.7754Z" fill="#4474F4"/>
<path d="M22.8893 30.0013L25.0506 33.3671L25.0506 33.3671L22.8893 30.0013ZM31.4554 24.5006L29.2941 21.1348L29.2941 21.1348L31.4554 24.5006ZM31.3893 21.0941L29.3602 24.5412L29.3602 24.5412L31.3893 21.0941ZM22.8231 16.0518L24.8522 12.6046L24.8522 12.6046L22.8231 16.0518ZM5 3C5 4.10457 4.10457 5 3 5V-3C-0.313707 -3 -3 -0.313711 -3 3H5ZM5 42.1489V3H-3V42.1489H5ZM3 40.1489C4.10457 40.1489 5 41.0444 5 42.1489H-3C-3 45.4626 -0.313717 48.1489 3 48.1489V40.1489ZM47.6809 40.1489H3V48.1489H47.6809V40.1489ZM45.6809 42.1489C45.6809 41.0444 46.5763 40.1489 47.6809 40.1489V48.1489C50.9946 48.1489 53.6809 45.4626 53.6809 42.1489H45.6809ZM45.6809 3V42.1489H53.6809V3H45.6809ZM47.6809 5C46.5763 5 45.6809 4.10456 45.6809 3H53.6809C53.6809 -0.3137 50.9946 -3 47.6809 -3V5ZM3 5H47.6809V-3H3V5ZM23.8086 28.3183V17.7754H15.8086V28.3183H23.8086ZM20.7279 26.6354C22.059 25.7807 23.8086 26.7365 23.8086 28.3183H15.8086C15.8086 33.064 21.0574 35.9313 25.0506 33.3671L20.7279 26.6354ZM29.2941 21.1348L20.7279 26.6354L25.0506 33.3671L33.6168 27.8664L29.2941 21.1348ZM29.3602 24.5412C28.0757 23.7851 28.0399 21.9401 29.2941 21.1348L33.6167 27.8664C37.3794 25.4503 37.272 19.9153 33.4184 17.6469L29.3602 24.5412ZM20.794 19.4989L29.3602 24.5412L33.4184 17.6469L24.8522 12.6046L20.794 19.4989ZM23.8086 17.7754C23.8086 19.3225 22.1273 20.2837 20.7941 19.4989L24.8522 12.6046C20.8524 10.2503 15.8086 13.1341 15.8086 17.7754H23.8086Z" fill="#4474F4" mask="url(#path-2-inside-1_1213_45)"/>
<rect x="1" y="1" width="48.6809" height="43.1489" rx="2" stroke="#4474F4"/>
</svg>
