<svg width="55" height="56" viewBox="0 0 55 56" fill="none" xmlns="http://www.w3.org/2000/svg">
<path fill-rule="evenodd" clip-rule="evenodd" d="M3.15794 25.7362C2.41614 26.4852 2 27.4968 2 28.5509V51.1578C2 52.2624 2.89543 53.1578 4 53.1578H19.8482C19.9333 53.1578 20 53.0852 20 53V53V41C20 39.8954 20.8954 39 22 39H33C34.1046 39 35 39.8954 35 41V53V53C35 53.0852 35.0667 53.1578 35.1518 53.1578H51C52.1046 53.1578 53 52.2624 53 51.1578V28.5509C53 27.4968 52.5839 26.4852 51.8421 25.7362L28.921 2.59263C28.1384 1.80245 26.8616 1.80246 26.079 2.59264L3.15794 25.7362Z" fill="#4474F4"/>
<path d="M3.15794 25.7362L1.73691 24.3288L1.73691 24.3288L3.15794 25.7362ZM51.8421 25.7362L53.2631 24.3288L53.2631 24.3288L51.8421 25.7362ZM28.921 2.59263L27.5 4L27.5 4L28.921 2.59263ZM26.079 2.59264L24.6579 1.18527L24.6579 1.18527L26.079 2.59264ZM4 28.5509C4 28.0238 4.20807 27.5181 4.57897 27.1436L1.73691 24.3288C0.624211 25.4523 0 26.9697 0 28.5509H4ZM4 51.1578V28.5509H0V51.1578H4ZM4 51.1578H4H0C0 53.3669 1.79086 55.1578 4 55.1578V51.1578ZM19.8482 51.1578H4V55.1578H19.8482V51.1578ZM22 53V41H18V53H22ZM22 41V37C19.7909 37 18 38.7909 18 41H22ZM22 41H33V37H22V41ZM33 41H37C37 38.7909 35.2091 37 33 37V41ZM33 41V53H37V41H33ZM51 51.1578H35.1518V55.1578H51V51.1578ZM51 51.1578V55.1578C53.2091 55.1578 55 53.367 55 51.1578H51ZM51 28.5509V51.1578H55V28.5509H51ZM50.421 27.1436C50.7919 27.5181 51 28.0238 51 28.5509H55C55 26.9697 54.3758 25.4523 53.2631 24.3288L50.421 27.1436ZM27.5 4L50.421 27.1436L53.2631 24.3288L30.3421 1.18527L27.5 4ZM27.5 4L27.5 4L30.3421 1.18527C28.7769 -0.395092 26.2231 -0.395087 24.6579 1.18527L27.5 4ZM4.57897 27.1436L27.5 4L24.6579 1.18527L1.73691 24.3288L4.57897 27.1436ZM33 53C33 54.0881 33.8631 55.1578 35.1518 55.1578V51.1578C36.2702 51.1578 37 52.0823 37 53H33ZM19.8482 55.1578C21.1369 55.1578 22 54.0881 22 53H18C18 52.0823 18.7298 51.1578 19.8482 51.1578V55.1578Z" fill="#4474F4"/>
</svg>
