<svg width="38" height="37" viewBox="0 0 38 37" fill="none" xmlns="http://www.w3.org/2000/svg">
<path d="M32.3637 7.44575C31.5936 6.67525 30.6792 6.06404 29.6728 5.64703C28.6663 5.23002 27.5876 5.01538 26.4982 5.01538C25.4088 5.01538 24.3301 5.23002 23.3237 5.64703C22.3173 6.06404 21.4029 6.67525 20.6328 7.44575L19.0344 9.04405L17.4361 7.44575C15.8805 5.89013 13.7706 5.01619 11.5707 5.01619C9.37069 5.01619 7.26081 5.89013 5.70519 7.44575C4.14957 9.00137 3.27563 11.1112 3.27563 13.3112C3.27563 15.5112 4.14957 17.6211 5.70519 19.1767L7.3035 20.775L19.0344 32.5059L30.7654 20.775L32.3637 19.1767C33.1342 18.4066 33.7454 17.4922 34.1624 16.4857C34.5794 15.4793 34.7941 14.4006 34.7941 13.3112C34.7941 12.2218 34.5794 11.1431 34.1624 10.1367C33.7454 9.13028 33.1342 8.21588 32.3637 7.44575V7.44575Z" stroke="white" stroke-width="3.01567" stroke-linecap="round" stroke-linejoin="round"/>
</svg>
