<svg width="53" height="56" viewBox="0 0 53 56" fill="none" xmlns="http://www.w3.org/2000/svg">
<path d="M8.63818 54H44.0424" stroke="#DBDBDB" stroke-width="4" stroke-linecap="round"/>
<path d="M23.8887 31.0006L24.9694 32.6835L24.9694 32.6835L23.8887 31.0006ZM32.4549 25.4999L31.3742 23.817L31.3742 23.817L32.4549 25.4999ZM32.3888 22.0934L31.3742 23.817L31.3742 23.817L32.3888 22.0934ZM23.8226 17.0511L24.8372 15.3275L24.8372 15.3275L23.8226 17.0511ZM4 4V4V0C1.79086 0 0 1.79086 0 4H4ZM4 43.1489V4H0V43.1489H4ZM4 43.1489H4H0C0 45.3581 1.79086 47.1489 4 47.1489V43.1489ZM48.6809 43.1489H4V47.1489H48.6809V43.1489ZM48.6809 43.1489V47.1489C50.89 47.1489 52.6809 45.3581 52.6809 43.1489H48.6809ZM48.6809 4V43.1489H52.6809V4H48.6809ZM48.6809 4H48.6809H52.6809C52.6809 1.79087 50.89 0 48.6809 0V4ZM4 4H48.6809V0H4V4ZM22.8081 29.3177V18.7747H18.8081V29.3177H22.8081ZM22.8081 29.3177L22.8081 29.3177H18.8081C18.8081 32.4814 22.3072 34.3929 24.9694 32.6835L22.8081 29.3177ZM31.3742 23.817L22.8081 29.3177L24.9694 32.6835L33.5356 27.1828L31.3742 23.817ZM31.3742 23.817L31.3742 23.817L33.5356 27.1828C36.044 25.572 35.9724 21.882 33.4033 20.3698L31.3742 23.817ZM22.8081 18.7747L31.3742 23.817L33.4033 20.3698L24.8372 15.3275L22.8081 18.7747ZM22.8081 18.7747L22.8081 18.7747L24.8372 15.3275C22.1706 13.7579 18.8081 15.6805 18.8081 18.7747H22.8081Z" fill="#DBDBDB"/>
</svg>
