<svg width="57" height="56" viewBox="0 0 57 56" fill="none" xmlns="http://www.w3.org/2000/svg">
<path d="M29.9579 11.6296L28.1514 10.7714C27.857 11.3911 27.9008 12.1183 28.2673 12.6982C28.6338 13.2781 29.2719 13.6296 29.9579 13.6296V11.6296ZM17.7738 11.6296V13.6296C18.4598 13.6296 19.0979 13.2781 19.4644 12.6982C19.8309 12.1183 19.8747 11.3911 19.5803 10.7714L17.7738 11.6296ZM45.051 38.9069L45.9092 37.1004C45.2896 36.806 44.5623 36.8497 43.9825 37.2163C43.4026 37.5828 43.051 38.2209 43.051 38.9069H45.051ZM45.051 26.7228H43.051C43.051 27.4087 43.4026 28.0469 43.9825 28.4134C44.5623 28.7799 45.2896 28.8236 45.9092 28.5293L45.051 26.7228ZM28.6066 8.74074C28.6066 9.47149 28.4426 10.1584 28.1514 10.7714L31.7644 12.4878C32.3051 11.3497 32.6066 10.0777 32.6066 8.74074H28.6066ZM23.8658 4C26.4841 4 28.6066 6.1225 28.6066 8.74074H32.6066C32.6066 3.91336 28.6932 0 23.8658 0V4ZM19.1251 8.74074C19.1251 6.1225 21.2476 4 23.8658 4V0C19.0385 0 15.1251 3.91336 15.1251 8.74074H19.1251ZM19.5803 10.7714C19.2891 10.1583 19.1251 9.47148 19.1251 8.74074H15.1251C15.1251 10.0777 15.4266 11.3498 15.9673 12.4878L19.5803 10.7714ZM17.7738 9.62963H4.68066V13.6296H17.7738V9.62963ZM4.68066 9.62963C2.47152 9.62963 0.680664 11.4205 0.680664 13.6296H4.68066V13.6296V9.62963ZM0.680664 13.6296V52H4.68066V13.6296H0.680664ZM0.680664 52C0.680664 54.2091 2.47153 56 4.68067 56V52H4.68066H0.680664ZM4.68067 56H43.051V52H4.68067V56ZM43.051 56C45.2602 56 47.051 54.2091 47.051 52H43.051V52V56ZM47.051 52V38.9069H43.051V52H47.051ZM44.1928 40.7134C45.3309 41.254 46.603 41.5556 47.9399 41.5556V37.5556C47.2092 37.5556 46.5223 37.3916 45.9092 37.1004L44.1928 40.7134ZM47.9399 41.5556C52.7673 41.5556 56.6807 37.6422 56.6807 32.8148H52.6807C52.6807 35.4331 50.5582 37.5556 47.9399 37.5556V41.5556ZM56.6807 32.8148C56.6807 27.9874 52.7673 24.0741 47.9399 24.0741V28.0741C50.5582 28.0741 52.6807 30.1966 52.6807 32.8148H56.6807ZM47.9399 24.0741C46.603 24.0741 45.3309 24.3756 44.1928 24.9162L45.9092 28.5293C46.5223 28.238 47.2092 28.0741 47.9399 28.0741V24.0741ZM47.051 26.7228V13.6296H43.051V26.7228H47.051ZM47.051 13.6296C47.051 11.4205 45.2602 9.62963 43.051 9.62963V13.6296H47.051ZM43.051 9.62963H29.9579V13.6296H43.051V9.62963Z" fill="#DBDBDB"/>
</svg>
