<svg width="24" height="24" viewBox="0 0 24 24" fill="none" xmlns="http://www.w3.org/2000/svg">
<g clip-path="url(#clip0_1281_2)">
<path d="M9 0H4C3.44772 0 3 0.447716 3 1V23C3 23.5523 3.44772 24 4 24H9C9.55228 24 10 23.5523 10 23V1C10 0.447715 9.55228 0 9 0Z" fill="#374957"/>
<path d="M20.0001 0H15.0001C14.4478 0 14.0001 0.447716 14.0001 1V23C14.0001 23.5523 14.4478 24 15.0001 24H20.0001C20.5524 24 21.0001 23.5523 21.0001 23V1C21.0001 0.447715 20.5524 0 20.0001 0Z" fill="#374957"/>
</g>
<defs>
<clipPath id="clip0_1281_2">
<rect width="24" height="24" fill="white"/>
</clipPath>
</defs>
</svg>
