<svg width="20" height="24" viewBox="0 0 20 24" fill="none" xmlns="http://www.w3.org/2000/svg">
<path d="M17.492 7.96944L7.95401 0.975435C7.20903 0.42992 6.32755 0.101347 5.40727 0.0261376C4.48699 -0.0490718 3.56385 0.13202 2.74019 0.549339C1.91653 0.966658 1.22451 1.6039 0.740848 2.39044C0.257183 3.17698 0.00076115 4.08209 6.03388e-06 5.00544V19.0004C-0.00143046 19.9247 0.253651 20.8312 0.736856 21.6191C1.22006 22.407 1.91243 23.0453 2.7369 23.463C3.56137 23.8808 4.48559 24.0615 5.40668 23.9851C6.32777 23.9087 7.2096 23.5783 7.95401 23.0304L17.492 16.0364C18.1249 15.572 18.6395 14.965 18.9942 14.2647C19.349 13.5644 19.5338 12.7905 19.5338 12.0054C19.5338 11.2204 19.349 10.4464 18.9942 9.74613C18.6395 9.04583 18.1249 8.43888 17.492 7.97444V7.96944Z" fill="white"/>
</svg>
