<svg width="26" height="43" viewBox="0 0 26 43" fill="none" xmlns="http://www.w3.org/2000/svg">
<path d="M20.3269 41.2595C20.8486 41.7811 21.5125 42.0657 22.2951 42.0657C23.8601 42.0657 25.1168 40.8326 25.1168 39.2676C25.1168 38.4851 24.7848 37.7738 24.2395 37.2284L7.64083 21.0091L24.2395 4.83732C24.7848 4.29193 25.1168 3.55685 25.1168 2.79806C25.1168 1.23304 23.8601 0 22.2951 0C21.5125 0 20.8486 0.284548 20.3269 0.806219L1.87873 18.8276C1.21479 19.4441 0.906525 20.2029 0.882812 21.0328C0.882812 21.8628 1.21479 22.5741 1.87873 23.2144L20.3269 41.2595Z" fill="#555555"/>
</svg>
