<svg width="35" height="36" viewBox="0 0 35 36" fill="none" xmlns="http://www.w3.org/2000/svg">
<path fill-rule="evenodd" clip-rule="evenodd" d="M30.6481 26.3119C33.0516 26.3119 35 24.3635 35 21.96C35 19.5564 33.0516 17.608 30.6481 17.608C29.7896 17.608 28.9892 17.8566 28.3149 18.2856C28.0137 18.4773 27.5608 18.2796 27.5608 17.9226L27.5608 9.93718C27.5608 8.83261 26.6653 7.93718 25.5608 7.93718L18.0615 7.93718C17.7046 7.93718 17.5069 7.48463 17.6983 7.18347C18.1266 6.50961 18.3746 5.70999 18.3746 4.85243C18.3746 2.44892 16.4262 0.500487 14.0227 0.500487C11.6191 0.500487 9.67072 2.44892 9.67072 4.85243C9.67072 5.70999 9.91876 6.50961 10.347 7.18347C10.5384 7.48463 10.3407 7.93718 9.98386 7.93718L1.99845 7.93718C0.893886 7.93718 -0.00154532 8.83261 -0.00154536 9.93718L-0.00154639 33.4995C-0.00154644 34.6041 0.893881 35.4995 1.99845 35.4995L25.5608 35.4995C26.6653 35.4995 27.5608 34.6041 27.5608 33.4995L27.5608 25.9973C27.5608 25.6403 28.0137 25.4426 28.3149 25.6343C28.9892 26.0634 29.7896 26.3119 30.6481 26.3119Z" fill="#4474F4"/>
</svg>
