<svg width="18" height="20" viewBox="0 0 18 20" fill="none" xmlns="http://www.w3.org/2000/svg">
<path d="M8.88121 2.96509C10.6577 2.96509 12.3792 3.58106 13.7524 4.70804C15.1257 5.83503 16.0657 7.4033 16.4122 9.14564C16.7588 10.888 16.4905 12.6966 15.6531 14.2633C14.8157 15.83 13.4609 17.0579 11.8197 17.7377C10.1784 18.4176 8.35222 18.5073 6.65223 17.9916C4.95225 17.4759 3.48367 16.3867 2.49671 14.9096C1.50975 13.4326 1.06549 11.6589 1.23961 9.89102C1.41374 8.1231 2.19548 6.47025 3.45164 5.21409" stroke="#DBDBDB" stroke-width="1.53571" stroke-linecap="round"/>
<path d="M9.6489 1.6853L8.6997 2.63451C8.51249 2.82172 8.49892 3.1208 8.66841 3.32419L9.6489 4.50078" stroke="#DBDBDB" stroke-width="1.53571" stroke-linecap="round"/>
</svg>
