<svg width="36" height="35" viewBox="0 0 36 35" fill="none" xmlns="http://www.w3.org/2000/svg">
<path d="M15.5973 2.39466C16.3536 0.0671358 19.6464 0.067132 20.4027 2.39465L22.8211 9.83795C23.1594 10.8788 24.1293 11.5836 25.2238 11.5836H33.0502C35.4975 11.5836 36.515 14.7153 34.5351 16.1537L28.2034 20.7539C27.318 21.3973 26.9475 22.5376 27.2857 23.5785L29.7042 31.0217C30.4604 33.3493 27.7965 35.2847 25.8166 33.8463L19.4849 29.246C18.5995 28.6027 17.4005 28.6027 16.5151 29.246L10.1834 33.8463C8.20352 35.2847 5.53957 33.3493 6.29582 31.0218L8.7143 23.5785C9.0525 22.5376 8.682 21.3973 7.79656 20.754L1.46492 16.1537C-0.514993 14.7153 0.502545 11.5836 2.94985 11.5836H10.7762C11.8707 11.5836 12.8406 10.8788 13.1789 9.83795L15.5973 2.39466Z" fill="#FFC84F"/>
</svg>
